<svg id="Layer_1" data-name="Layer 1" xmlns="http://www.w3.org/2000/svg" viewBox="0 0 830.25 302.5"><defs><style>.cls-1{fill:#fcd067;}</style></defs><path class="cls-1" d="M214.75,388.75H437.37a23.56,23.56,0,0,1,23.56,23.55v53.78a5.49,5.49,0,0,1-5.48,5.48h-14a21.78,21.78,0,0,0-21.79,21.79V581a5.48,5.48,0,0,1-5.48,5.48H230.94a5.48,5.48,0,0,1-5.48-5.48V493.35a21.78,21.78,0,0,0-21.79-21.79h-7a5.48,5.48,0,0,1-5.48-5.48V412.3A23.55,23.55,0,0,1,214.75,388.75Z" transform="translate(-121 -388.75)"/><path class="cls-1" d="M146.27,486.85h37.2a25.27,25.27,0,0,1,25.27,25.27v94.2h230.1v-94.2a25.27,25.27,0,0,1,25.26-25.27h32.14a25.27,25.27,0,0,1,25.27,25.27V653a8.19,8.19,0,0,1-8.18,8.19H461.47v27a3.12,3.12,0,0,1-3.12,3.12H426a3.12,3.12,0,0,1-3.11-3.12v-27h-196v27a3.12,3.12,0,0,1-3.12,3.12H189.28a3.12,3.12,0,0,1-3.12-3.12v-27h-57A8.19,8.19,0,0,1,121,653V512.12A25.27,25.27,0,0,1,146.27,486.85Z" transform="translate(-121 -388.75)"/><path class="cls-1" d="M720.14,569.8H674.62v-1.95c6.74,0,9.28-3.89,9.28-14.08V469.91L644.52,571.15h-1.95l-45.22-90V531c0,9.74,2.69,36.84,21.71,36.84v1.95H572.94v-1.95c19.32,0,22.46-27,22.46-36.84V478c-5.69-10.18-11.83-11.38-15.87-11.68v-1.95h40.28l36.09,72.48,28-72.48h34.75v1.95c-6.89,0-9.29,3-9.29,12.13v75.32c0,10.19,3.89,14.08,10.78,14.08Z" transform="translate(-121 -388.75)"/><path class="cls-1" d="M769.56,521.43a10.9,10.9,0,0,1-4.19-8.24c0-1.79-5.39-.6-11.23,8.54v30.55c0,8.23.75,14.22,6.14,15.72v1.8H726V568c5.85-1.8,6-8.09,6-15.72V517.39c0-5.25-1.64-7.34-7.78-10v-1.94l29.95-6.14v19c9.28-14.22,14.52-16.32,18.57-18.12A13.24,13.24,0,0,1,786,502.41a12.58,12.58,0,0,1-16.47,19Z" transform="translate(-121 -388.75)"/><path class="cls-1" d="M795,556.62a14,14,0,1,1,28,0,14,14,0,0,1-28,0Z" transform="translate(-121 -388.75)"/><path class="cls-1" d="M913.18,571.15c-29.06,0-40.59-8.39-40.59-8.39V534h1.95c2.85,9.58,13.63,35.19,38.64,35.19,16,0,20.81-20.82,2.69-34.14l-23.06-14.53c-21.27-13.33-27.85-29.95-15.27-46.12,0,0,7.78-11.38,31.89-11.38,25.61,0,37,7,37,7v25.16h-1.95c-3-9.28-11.08-30.25-35-30.25-16.17,0-21.41,18.87-1.94,31.6l23.06,15.27c19.76,13,26.5,30.7,15.27,47C945.82,558.87,938.18,571.15,913.18,571.15Z" transform="translate(-121 -388.75)"/><path class="cls-1" d="M672.48,599.59v7.25H672c-.62-6.92-10.76-6.77-10.76-6.77H660v12h2.27s4.76.1,5.31-4.07H668v8.6h-.47c-.55-4.13-5.31-4-5.31-4H660v8c0,4.32,2.56,4.29,3.33,4.29v.47H651.58v-.47c1.58,0,2.13-2,2.13-4.54v-15.7c0-2.27-.52-4.57-2.13-4.57v-.48Z" transform="translate(-121 -388.75)"/><path class="cls-1" d="M676.17,616.71V603.29c0-2.24-.59-3.22-2.2-3.22v-.48h11v.48c-1.57,0-2.45.58-2.45,3.22V617c0,4.32,2.49,6.51,6,6.51s6-2.52,6-6.51V606.76c0-1.5-.44-6.69-4.72-6.69v-.48H700.1l0,.48c-4.83,0-5.16,5.19-5.16,6.69V617c0,6.3-4.54,8.71-9.37,8.71S676.17,622.68,676.17,616.71Z" transform="translate(-121 -388.75)"/><path class="cls-1" d="M728.2,625.35h-5.31c-4.57,0-4.53-.84-6.22-8.2-.84-3.73-4.72-3.62-4.72-3.62h-1.72v7.54c0,3,.66,3.81,2.2,3.81v.47h-10.8v-.47c1.58,0,2.27-.7,2.27-3.81V603.32c0-2.27-.66-3.25-2.27-3.25v-.48h9.74c7.28,0,13.13.88,13.13,7,0,5-3.91,6.37-7.86,6.62,3.29-.11,5.85,1.14,7.61,7.72a5.2,5.2,0,0,0,4,4Zm-16.83-25.28h-1.14v13h1.14c4.17,0,5.85,0,5.85-6.48C717.22,599.92,715.28,600.07,711.37,600.07Z" transform="translate(-121 -388.75)"/><path class="cls-1" d="M750,625.35l-14.89-19.87v11.09c0,1.46.07,8.31,5.27,8.31v.47H729v-.47c5.3,0,5.63-6.85,5.63-8.31V604.93l-1.57-2.12c-2.27-2.89-3.51-2.67-4.46-2.74v-.48H739l13.62,18.08v-9.33c0-1.69-.59-8.31-5.13-8.27v-.48h11.09v.48c-5,0-5.49,6.58-5.49,8.27v17Z" transform="translate(-121 -388.75)"/><path class="cls-1" d="M772.43,599.59v.48c-1.57,0-2.74.51-2.74,3.25v17.75c0,3,1.2,3.81,2.74,3.81v.47H760.61v-.47c1.58,0,2.75-.81,2.75-3.81V603.32c0-2.74-1.14-3.25-2.75-3.25v-.48Z" transform="translate(-121 -388.75)"/><path class="cls-1" d="M799.58,599.59v7.79h-.48c-.22-5.37-6.84-7.31-8.34-7.31h-.55v21c0,2.49.88,3.81,2.38,3.81v.47H781.43v-.47c1.5,0,2.38-1.32,2.38-3.81v-21h-.55c-1.54,0-8.12,1.94-8.34,7.31h-.48v-7.79Z" transform="translate(-121 -388.75)"/><path class="cls-1" d="M803.53,616.71V603.29c0-2.24-.59-3.22-2.2-3.22v-.48h11v.48c-1.57,0-2.45.58-2.45,3.22V617c0,4.32,2.49,6.51,6,6.51s6-2.52,6-6.51V606.76c0-1.5-.44-6.69-4.72-6.69v-.48h10.32l0,.48c-4.83,0-5.16,5.19-5.16,6.69V617c0,6.3-4.54,8.71-9.37,8.71C808,625.68,803.53,622.68,803.53,616.71Z" transform="translate(-121 -388.75)"/><path class="cls-1" d="M855.56,625.35h-5.31c-4.57,0-4.53-.84-6.22-8.2-.84-3.73-4.72-3.62-4.72-3.62h-1.72v7.54c0,3,.66,3.81,2.2,3.81v.47H829v-.47c1.58,0,2.27-.7,2.27-3.81V603.32c0-2.27-.66-3.25-2.27-3.25v-.48h9.74c7.28,0,13.13.88,13.13,7,0,5-3.91,6.37-7.86,6.62,3.29-.11,5.85,1.14,7.61,7.72a5.2,5.2,0,0,0,3.95,4Zm-16.83-25.28h-1.14v13h1.14c4.17,0,5.85,0,5.85-6.48C844.58,599.92,842.64,600.07,838.73,600.07Z" transform="translate(-121 -388.75)"/><path class="cls-1" d="M877.8,617.78v7.57h-21v-.47c1.54,0,2.12-2,2.12-4.54v-15.7c0-2.27-.51-4.57-2.12-4.57v-.48h20.53v7.25h-.48c-.44-6.74-10.39-6.77-10.39-6.77h-1.32v12h2.16s4.72.07,5.12-4.07h.48v8.6h-.48c-.4-4.1-5.12-4.06-5.12-4.06h-2.16v12.3h1.32s10.1.21,10.87-7.1Z" transform="translate(-121 -388.75)"/></svg>